<?xml version="1.0" encoding="UTF-8" standalone="no"?>
<!-- Created with Inkscape (http://www.inkscape.org/) -->

<svg
   version="1.1"
   id="svg99"
   width="270"
   height="170"
   viewBox="0 0 162 102"
   sodipodi:docname="RenovAlgarve.svg"
   inkscape:version="1.1.2 (0a00cf5339, 2022-02-04)"
   xmlns:inkscape="http://www.inkscape.org/namespaces/inkscape"
   xmlns:sodipodi="http://sodipodi.sourceforge.net/DTD/sodipodi-0.dtd"
   xmlns="http://www.w3.org/2000/svg"
   xmlns:svg="http://www.w3.org/2000/svg">
  <defs
     id="defs103" />
  <sodipodi:namedview
     id="namedview101"
     pagecolor="#ffffff"
     bordercolor="#666666"
     borderopacity="1.0"
     inkscape:pageshadow="2"
     inkscape:pageopacity="0.0"
     inkscape:pagecheckerboard="0"
     showgrid="false"
     inkscape:zoom="1.9593693"
     inkscape:cx="315.6628"
     inkscape:cy="86.507429"
     inkscape:window-width="1478"
     inkscape:window-height="800"
     inkscape:window-x="0"
     inkscape:window-y="0"
     inkscape:window-maximized="1"
     inkscape:current-layer="g105"
     width="165px"
     fit-margin-top="0"
     fit-margin-left="0"
     fit-margin-right="0"
     fit-margin-bottom="0"
     scale-x="0.6" />
  <g
     inkscape:groupmode="layer"
     inkscape:label="Image"
     id="g105"
     transform="translate(-1,-1)">
    <path
       style="fill:#008000"
       d="m 1,101.5 c 0,-1.32099 9.666667,-1.5 81,-1.5 71.33333,0 81,0.17901 81,1.5 0,1.32099 -9.66667,1.5 -81,1.5 -71.333333,0 -81,-0.17901 -81,-1.5 z M 37,60 v -5 h 5.5 5.5 v 5 5 H 42.5 37 Z m 17,0 v -5 h 5.5 5.5 v 5 5 H 59.5 54 Z M 2.654988,54.17126 C 1.744744,53.16545 1,51.743612 1,51.011616 1,49.261318 45.673754,4.269138 49.302237,2.36509 52.07819,0.908406 52.172696,0.960765 59.377947,7.947307 L 66.65142,15 H 82.82571 99 V 8 1 h 6.5 6.5 v 7 7 h 8.80887 c 5.55592,0 9.37976,0.461601 10.35482,1.25 C 134.69689,19.106809 161,50.123542 161,51.433087 c 0,0.783233 -0.70714,2.131203 -1.57143,2.995483 -1.36145,1.36146 -5.87113,1.57758 -33.75,1.61748 L 93.5,56.09211 72.287556,34.296054 51.075113,12.5 29.27922,34.25 C 17.291479,46.2125 6.769323,56 5.896651,56 5.023979,56 3.565231,55.17707 2.654988,54.17126 Z M 37,44 v -5 h 5.5 5.5 v 5 5 H 42.5 37 Z m 17,0 v -5 h 5.5 5.5 v 5 5 H 59.5 54 Z"
       id="path1825"
       sodipodi:nodetypes="sssssccccccccccccccccccsssscccccccccssssscccssscccccccccccccccccc" />
    <text
       xml:space="preserve"
       style="font-weight:bold;font-size:24.2591px;line-height:1.25;font-family:Laksaman;-inkscape-font-specification:'Laksaman, Bold';font-variant-ligatures:none;stroke-width:1.0108"
       x="1.4095877"
       y="91.106438"
       id="text10191"
       transform="scale(1.0107969,0.98931842)"><tspan
         sodipodi:role="line"
         id="tspan10189"
         x="1.4095877"
         y="91.106438"
         style="stroke-width:1.0108">RenovAlgarve</tspan></text>
  </g>
</svg>
